{
  "accessors": [
    {
      "bufferView": 2,
      "componentType": 5126,
      "count": 1712,
      "max": [
        2.4420700073242188,
        2.3454298973083496,
        0.07614000141620636
      ],
      "min": [
        -2.4410200119018555,
        -2.3926200866699219,
        -0.08978000283241272
      ],
      "type": "VEC3"
    },
    {
      "bufferView": 2,
      "byteOffset": 20544,
      "componentType": 5126,
      "count": 1712,
      "max": [
        0.95859682559967041,
        0.95173019170761108,
        0.99999970197677612
      ],
      "min": [
        -0.99534446001052856,
        -0.9526364803314209,
        -0.99999970197677612
      ],
      "type": "VEC3"
    },
    {
      "bufferView": 3,
      "componentType": 5126,
      "count": 1712,
      "max": [
        0.99997937679290771,
        1,
        0.95877170562744141,
        1
      ],
      "min": [
        -0.9989011287689209,
        -0.99990171194076538,
        -0.9854273796081543,
        1
      ],
      "type": "VEC4"
    },
    {
      "bufferView": 1,
      "componentType": 5126,
      "count": 1712,
      "max": [
        0.96667999029159546,
        0.99392002820968628
      ],
      "min": [
        0.0055599999614059925,
        0.0059600002132356167
      ],
      "type": "VEC2"
    },
    {
      "bufferView": 0,
      "componentType": 5125,
      "count": 3618,
      "max": [
        1711
      ],
      "min": [
        0
      ],
      "type": "SCALAR"
    }
  ],
  "asset": {
    "extras": {
      "author": "Adan (https://sketchfab.com/Apdigivid.)",
      "license": "CC-BY-4.0 (http://creativecommons.org/licenses/by/4.0/)",
      "source": "https://sketchfab.com/models/c9bda066fefd4425a4983288a2785069",
      "title": "Stone Circle - Cyclopian Assets"
    },
    "generator": "Sketchfab-3.18.7",
    "version": "2.0"
  },
  "bufferViews": [
    {
      "buffer": 0,
      "byteLength": 14472,
      "byteOffset": 0,
      "name": "floatBufferViews",
      "target": 34963
    },
    {
      "buffer": 0,
      "byteLength": 13696,
      "byteOffset": 14472,
      "byteStride": 8,
      "name": "floatBufferViews",
      "target": 34962
    },
    {
      "buffer": 0,
      "byteLength": 41088,
      "byteOffset": 28168,
      "byteStride": 12,
      "name": "floatBufferViews",
      "target": 34962
    },
    {
      "buffer": 0,
      "byteLength": 27392,
      "byteOffset": 69256,
      "byteStride": 16,
      "name": "floatBufferViews",
      "target": 34962
    }
  ],
  "buffers": [
    {
      "byteLength": 96648,
      "uri": "scene.bin"
    }
  ],
  "images": [
    {
      "uri": "textures/Stone_Circle_Mat_baseColor.png"
    }
  ],
  "materials": [
    {
      "doubleSided": true,
      "emissiveFactor": [
        0,
        0,
        0
      ],
      "name": "Stone_Circle_Mat",
      "pbrMetallicRoughness": {
        "baseColorFactor": [
          1,
          1,
          1,
          1
        ],
        "baseColorTexture": {
          "index": 0,
          "texCoord": 0
        },
        "metallicFactor": 0,
        "roughnessFactor": 0.74561737800000005
      }
    }
  ],
  "meshes": [
    {
      "name": "Stone_Circle_0",
      "primitives": [
        {
          "attributes": {
            "NORMAL": 1,
            "POSITION": 0,
            "TANGENT": 2,
            "TEXCOORD_0": 3
          },
          "indices": 4,
          "material": 0,
          "mode": 4
        }
      ]
    }
  ],
  "nodes": [
    {
      "children": [
        1
      ],
      "name": "RootNode (gltf orientation matrix)",
      "rotation": [
        -0.70710678118654746,
        -0,
        -0,
        0.70710678118654757
      ]
    },
    {
      "children": [
        2
      ],
      "name": "RootNode (model correction matrix)"
    },
    {
      "children": [
        3
      ],
      "name": "Root"
    },
    {
      "children": [
        4
      ],
      "name": "Stone_Circle"
    },
    {
      "mesh": 0,
      "name": "Stone_Circle_0"
    }
  ],
  "samplers": [
    {
      "magFilter": 9729,
      "minFilter": 9987,
      "wrapS": 10497,
      "wrapT": 10497
    }
  ],
  "scene": 0,
  "scenes": [
    {
      "name": "OSG_Scene",
      "nodes": [
        0
      ]
    }
  ],
  "textures": [
    {
      "sampler": 0,
      "source": 0
    }
  ]
}

